<?xml version="1.0" encoding="UTF-8" standalone="no"?>
<svg width="25px" height="28px" viewBox="0 0 25 28" version="1.1" xmlns="http://www.w3.org/2000/svg" xmlns:xlink="http://www.w3.org/1999/xlink" style="background: #FFFFFF;">
    <!-- Generator: sketchtool 39.1 (31720) - http://www.bohemiancoding.com/sketch -->
    <title>3CC12853-CAC0-48A5-B018-E9D922C6C2D0</title>
    <desc>Created with sketchtool.</desc>
    <defs></defs>
    <g id="Symbols" stroke="none" stroke-width="1" fill="none" fill-rule="evenodd">
        <g id="module-icon" stroke="#FFFFFF" stroke-width="0.875" fill="#6A78D1">
            <path d="M12.0993497,0.13683054 C12.4379833,-0.0527725863 12.9858256,-0.0444373326 13.3243979,0.156282613 L24.1068521,6.548576 C24.444794,6.74892221 24.4454244,7.07337386 24.1068521,7.27409381 L12.7125,14.0291461 L0.613150299,7.25464174 C0.274516739,7.06503861 0.277341208,6.75604977 0.613150299,6.56802808 L12.0993497,0.13683054 Z M24.1068521,7.27409381 C24.444794,7.0737476 24.71875,7.23541282 24.71875,7.61728163 L24.71875,21.1469573 L13.3243979,27.9020096 C12.986456,28.1023558 12.7125,27.9406906 12.7125,27.5588218 L12.7125,14.0291461 L24.1068521,7.27409381 Z M0,7.61728163 C0,7.22739802 0.277341208,7.06662005 0.613150299,7.25464174 L12.7125,14.0291461 L12.7125,27.5588218 C12.7125,27.9487054 12.4351588,28.1094834 12.0993497,27.9214617 L0,21.1469573 L0,7.61728163 Z" id="Combined-Shape"></path>
        </g>
    </g>
</svg>