<?xml version="1.0" encoding="UTF-8" standalone="no"?>
<svg width="135px" height="145px" viewBox="0 0 135 145" version="1.1" xmlns="http://www.w3.org/2000/svg" xmlns:xlink="http://www.w3.org/1999/xlink">
    <!-- Generator: sketchtool 3.7.2 (28276) - http://www.bohemiancoding.com/sketch -->
    <title>B5492998-F614-4C53-B98D-635447B0F888</title>
    <desc>Created with sketchtool.</desc>
    <defs></defs>
    <g id="Dashboard-update" stroke="none" stroke-width="1" fill="none" fill-rule="evenodd">
        <g id="0.0---No-stars" transform="translate(-693.000000, -139.000000)">
            <g id="sad-star" transform="translate(693.000000, 142.000000)">
                <ellipse id="Oval-1" fill="#CBD6E2" cx="67.5" cy="135.573276" rx="67.5" ry="6.42672414"></ellipse>
                <g id="Group" transform="translate(39.886364, 54.474138)" stroke="#CBD6E2" stroke-width="2.25" stroke-linecap="square">
                    <path d="M0,0 C0,0 2.45454545,4.89655172 9.20454545,4.89655172 C15.9545455,4.89655172 18.4090909,0 18.4090909,0" id="Line"></path>
                    <path d="M36.8181818,0 C36.8181818,0 39.2727273,4.89655172 46.0227273,4.89655172 C52.7727273,4.89655172 55.2272727,0 55.2272727,0" id="Line"></path>
                </g>
                <path d="M55.2272727,78.9568966 C55.2272727,78.9568966 58.5,83.8534483 67.5,83.8534483 C76.5,83.8534483 79.7727273,78.9568966 79.7727273,78.9568966" id="Line" stroke="#CBD6E2" stroke-width="2.25" stroke-linecap="square" transform="translate(67.500000, 81.405172) rotate(-180.000000) translate(-67.500000, -81.405172) "></path>
                <polygon id="Star-1" stroke="#CBD6E2" stroke-width="2.25" points="67.5 104.357759 27.8244955 121.796748 32.1920268 78.7705388 3.30368515 46.5222179 45.6784725 37.3695474 67.5 0 89.3215275 37.3695474 131.696315 46.5222179 102.807973 78.7705388 107.175505 121.796748"></polygon>
            </g>
        </g>
    </g>
</svg>